Coordinates
version=1
nRows=13
nColumns=40
inDegrees=yes

Units are S.I. units (second, meters, Newtons, ...)
If the header above contains a line with 'inDegrees', this indicates whether rotational values are in degrees (yes) or radians (no).

endheader
time	pelvis_tilt	pelvis_list	pelvis_rotation	pelvis_tx	pelvis_ty	pelvis_tz	hip_flexion_r	hip_adduction_r	hip_rotation_r	knee_angle_r	knee_angle_r_beta	ankle_angle_r	subtalar_angle_r	mtp_angle_r	hip_flexion_l	hip_adduction_l	hip_rotation_l	knee_angle_l	knee_angle_l_beta	ankle_angle_l	subtalar_angle_l	mtp_angle_l	lumbar_extension	lumbar_bending	lumbar_rotation	arm_flex_r	arm_add_r	arm_rot_r	elbow_flex_r	pro_sup_r	wrist_flex_r	wrist_dev_r	arm_flex_l	arm_add_l	arm_rot_l	elbow_flex_l	pro_sup_l	wrist_flex_l	wrist_dev_l
      8.01666667	      3.57640220	      3.92511676	      5.13397378	     -0.34433134	      1.05609694	      0.03778056	     43.32094672	    -14.53527884	     -6.24941751	     48.88969231	      0.85328610	    -13.75789837	     -8.11784810	      0.00000000	     63.36856545	     -5.30263355	      5.41525255	    108.51049088	      1.89386534	    -11.69627061	      5.86897201	      0.00000000	    -68.42185793	      0.23512539	     -3.81618567	     85.85308747	     -7.22575956	      1.69785139	     45.73411184	     88.54499009	      0.00000000	      0.00000000	     89.61005262	     -6.11493380	     11.75858150	     42.96223145	     83.65546200	      0.00000000	      0.00000000
      8.02500000	      3.81117216	      4.58399850	      4.96019959	     -0.34353602	      1.05572748	      0.03825113	     40.54980520	    -14.83463019	     -6.74224528	     46.10181981	      0.80462855	    -15.38215211	     -8.04683199	      0.00000000	     65.33278035	     -5.29452031	      4.96585152	    110.93522313	      1.93618490	    -10.00915924	      5.98874342	      0.00000000	    -68.63331789	     -0.51856920	     -4.38022647	     85.33925733	     -7.35709796	      1.15434329	     46.16740331	     88.54171891	      0.00000000	      0.00000000	     89.57253857	     -6.05530901	     12.03728884	     43.09289186	     83.62231966	      0.00000000	      0.00000000
      8.03333333	      4.82823969	      4.65176126	      4.74476248	     -0.34194023	      1.05708758	      0.03920007	     36.66382678	    -14.50793523	     -7.72282887	     43.23168851	      0.75453531	    -16.87181937	     -8.32804000	      0.00000000	     66.61059653	     -5.83261126	      5.12713308	    113.07582730	      1.97354549	     -9.08232816	      6.64644047	      0.00000000	    -69.62365499	     -0.95459140	     -4.33845401	     84.93559525	     -7.30510853	      0.15774507	     46.46837560	     88.55981189	      0.00000000	      0.00000000	     89.54956930	     -5.98823314	     12.33665699	     43.21762084	     83.68659286	      0.00000000	      0.00000000
      8.04166667	      4.74459941	      5.22665803	      4.67371958	     -0.34151629	      1.05693093	      0.03932146	     34.45933096	    -14.92990819	     -8.45115541	     40.96821868	      0.71503030	    -18.66649343	     -8.35903178	      0.00000000	     68.73227854	     -5.79358690	      4.57101703	    114.68867573	      2.00169501	     -7.38178231	      6.73489077	      0.00000000	    -69.59729045	     -1.55263062	     -4.87401582	     84.57267838	     -7.45937121	     -0.18458694	     46.74288175	     88.56041148	      0.00000000	      0.00000000	     89.51662661	     -5.88169835	     12.45087295	     43.34556193	     83.67789780	      0.00000000	      0.00000000
      8.05000000	      4.52401415	      5.84585556	      4.43393315	     -0.34111556	      1.05691921	      0.03964845	     32.59775811	    -15.28268011	     -8.81773316	     39.04784703	      0.68151350	    -19.71773185	     -8.33721910	      0.00000000	     71.02407637	     -6.01977312	      3.70216892	    115.91657712	      2.02312593	     -5.88682027	      6.67186553	      0.00000000	    -69.48304556	     -2.31443676	     -5.40953673	     84.29558099	     -7.57654802	     -0.37203267	     46.90121833	     88.53205102	      0.00000000	      0.00000000	     89.50201907	     -5.79113508	     12.52950709	     43.43665872	     83.57812890	      0.00000000	      0.00000000
      8.05833333	      4.97030106	      6.04807219	      4.29550641	     -0.34021016	      1.05850138	      0.03984359	     29.90589799	    -15.31386572	     -9.62571598	     37.23615470	      0.64989350	    -21.57578806	     -8.49967853	      0.00000000	     72.46301564	     -6.27756270	      3.34098731	    116.76868942	      2.03799809	     -5.09617462	      6.20129554	      0.00000000	    -70.04817666	     -2.67252293	     -5.55136653	     84.15198638	     -7.56754110	     -1.00821971	     46.99989061	     88.56406162	      0.00000000	      0.00000000	     89.50662335	     -5.75688434	     12.81074098	     43.60908998	     83.62854477	      0.00000000	      0.00000000
      8.06666667	      4.81628576	      6.52112885	      4.12590479	     -0.33977651	      1.05925165	      0.03965984	     28.34899613	    -15.65242623	     -9.82537607	     36.19429863	      0.63170968	    -22.28979583	     -8.48087458	      0.00000000	     74.41335098	     -6.38379075	      2.53704454	    117.20069063	      2.04553794	     -4.25255307	      6.08701433	      0.00000000	    -70.05929247	     -3.20283510	     -5.96686024	     84.05921708	     -7.64855952	     -1.16613980	     47.02733575	     88.54812590	      0.00000000	      0.00000000	     89.51192164	     -5.65013348	     12.83551527	     43.71750339	     83.51034917	      0.00000000	      0.00000000
      8.07500000	      4.69715620	      6.86347400	      4.01413859	     -0.33948348	      1.06046719	      0.03942482	     26.80567058	    -15.85387184	     -9.89803775	     35.35571390	      0.61707362	    -22.96160304	     -8.65103869	      0.00000000	     76.21594608	     -6.26221295	      1.89234261	    117.16584321	      2.04492973	     -3.73674155	      5.42529672	      0.00000000	    -70.13631825	     -3.58444629	     -6.31470724	     84.05995810	     -7.64331872	     -1.45761182	     46.94549840	     88.58190485	      0.00000000	      0.00000000	     89.54454755	     -5.63074205	     12.94921628	     43.85333332	     83.57445977	      0.00000000	      0.00000000
      8.08333333	      4.45935536	      6.96283129	      3.90205582	     -0.33943744	      1.06180472	      0.03920570	     25.65637924	    -15.86823078	     -9.89956608	     35.08465922	      0.61234282	    -22.86379543	     -8.64956335	      0.00000000	     78.01608072	     -6.58687425	      1.28733567	    116.74386928	      2.03756490	     -3.46824087	      5.28355556	      0.00000000	    -70.11153791	     -3.83688248	     -6.39874207	     84.14322104	     -7.68830692	     -1.53450106	     46.89018501	     88.48787309	      0.00000000	      0.00000000	     89.58067478	     -5.54894342	     12.91117985	     44.00929038	     83.43588550	      0.00000000	      0.00000000
      8.09166667	      4.35600019	      6.89908415	      3.81308777	     -0.33946159	      1.06337177	      0.03890587	     24.71467574	    -15.74533117	     -9.75427090	     35.41574412	      0.61812134	    -22.79525552	     -8.63484819	      0.00000000	     79.46248910	     -6.69032983	      0.97778765	    115.75505590	      2.02030685	     -2.92197972	      4.96197197	      0.00000000	    -70.20449986	     -3.94699067	     -6.35886271	     84.26787582	     -7.71895453	     -1.59402224	     46.85430394	     88.40011060	      0.00000000	      0.00000000	     89.62976521	     -5.49953413	     12.85233992	     44.17464890	     83.30916513	      0.00000000	      0.00000000
      8.10000000	      3.28814546	      7.41892401	      3.83468079	     -0.34028207	      1.06338274	      0.03773297	     25.55311340	    -16.39786838	     -8.90363737	     36.80338293	      0.64234021	    -22.38089903	     -9.09001638	      0.00000000	     81.44859975	     -6.27037453	     -0.18986567	    114.35856974	      1.99593357	     -3.23911190	      3.96450762	      0.00000000	    -69.38710693	     -4.29369626	     -6.96545843	     84.36129300	     -7.61817036	     -1.81415743	     46.60542106	     88.57933593	      0.00000000	      0.00000000	     89.64734037	     -5.43408157	     12.66573452	     44.22371217	     83.80643975	      0.00000000	      0.00000000
      8.10833333	      3.19296936	      7.10832440	      3.81188398	     -0.34062893	      1.06559092	      0.03726037	     25.01830733	    -16.12756424	     -8.75306373	     37.79940480	      0.65972407	    -22.18243887	     -9.07590090	      0.00000000	     82.01573222	     -6.25303106	     -0.27753626	    112.57383625	      1.96478409	     -2.97942844	      3.88965698	      0.00000000	    -69.52261591	     -4.14022916	     -6.72274345	     84.56026460	     -7.60439903	     -1.82289758	     46.65387100	     88.40179282	      0.00000000	      0.00000000	     89.70679452	     -5.43389934	     12.55594376	     44.42893826	     83.63519832	      0.00000000	      0.00000000
      8.11666667	      1.96615329	      7.66298170	      3.98757407	     -0.34195553	      1.06500365	      0.03578452	     27.02397738	    -16.98602842	     -7.52119141	     40.88800095	      0.71363024	    -20.85440004	     -9.72430388	      0.00000000	     83.35148167	     -5.54442736	     -1.30264996	    110.35572795	      1.92607080	     -3.21491190	      3.91401071	      0.00000000	    -68.51236448	     -4.34091400	     -7.38401629	     84.73319823	     -7.61611935	     -1.62371360	     46.32209228	     88.56806999	      0.00000000	      0.00000000	     89.72522432	     -5.28017086	     12.05622286	     44.39075277	     84.07401503	      0.00000000	      0.00000000
